<?xml version="1.0" encoding="utf-8"?>
<!-- Generator: Adobe Illustrator 25.2.3, SVG Export Plug-In . SVG Version: 6.00 Build 0)  -->
<svg version="1.1" id="Layer_1" xmlns="http://www.w3.org/2000/svg" xmlns:xlink="http://www.w3.org/1999/xlink" x="0px" y="0px"
	 viewBox="0 0 240.9 113.4" style="enable-background:new 0 0 240.9 113.4;" xml:space="preserve">
<style type="text/css">
	.st0{fill:#3544B1;}
</style>
<desc>Created with Sketch.</desc>
<g>
	<path class="st0" d="M15.8,56.7c0-17.2,14-31.1,31.1-31s31.1,14,31,31.1s-13.9,31-31.1,31C29.7,87.8,15.8,73.8,15.8,56.7L15.8,56.7
		z M46.2,67.3c-2.4,0.1-4.8-0.1-7.2-0.6c-1.7-0.4-3.2-1.5-3.9-3.2c-0.7-1.6-1-4.1-1-7.5c0-1.8,0.1-3.5,0.3-5.3
		c0.2-1.7,0.4-3.1,0.6-4.2l0.2-1.1c0,0,0-0.1,0-0.1c0-0.3-0.2-0.6-0.5-0.6l-4-0.6h-0.1c-0.3,0-0.5,0.2-0.6,0.5
		c-0.1,0.3-0.1,0.4-0.2,1.1c-0.2,1.2-0.4,2.3-0.7,4c-0.2,1.8-0.4,3.7-0.5,5.5c-0.1,1.3-0.1,2.6,0,3.8c0.1,3.4,0.7,6.1,1.8,8.1
		c1.1,2,2.9,3.5,5.5,4.4c2.6,0.9,6.1,1.3,10.7,1.3h0.6c4.6,0,8.1-0.4,10.7-1.3c2.6-0.9,4.4-2.4,5.5-4.4c1.1-2,1.7-4.8,1.8-8.1
		c0.1-1.3,0.1-2.6,0-3.8c-0.1-1.8-0.2-3.7-0.5-5.5c-0.2-1.7-0.4-2.8-0.7-4c-0.1-0.6-0.2-0.8-0.2-1.1c-0.1-0.3-0.3-0.5-0.6-0.5H63
		l-4,0.6c-0.3,0.1-0.5,0.3-0.5,0.6c0,0,0,0.1,0,0.1l0.2,1.1c0.2,1.1,0.4,2.5,0.6,4.2c0.2,1.8,0.3,3.5,0.3,5.3c0,3.4-0.3,5.9-1,7.5
		c-0.7,1.6-2.2,2.8-3.9,3.2c-2.4,0.5-4.8,0.7-7.2,0.6L46.2,67.3z"/>
	<g>
		<path class="st0" d="M209.7,58.9c0-5.3,1.5-9.1,7.7-9.1s7.7,3.7,7.7,9.1s-1.5,9.1-7.7,9.1C211.3,68,209.7,64.2,209.7,58.9z
			 M221.2,58.9c0-3.7-0.5-5.8-3.8-5.8c-3.3,0-3.8,2.1-3.8,5.8s0.5,5.8,3.8,5.8S221.2,62.6,221.2,58.9z"/>
		<path class="st0" d="M103.3,67.3c0.1,0.2,0.3,0.3,0.4,0.3h1.4c0.3,0,0.5-0.2,0.5-0.5V50.8c0-0.3-0.2-0.5-0.5-0.5h-2.9
			c-0.3,0-0.5,0.2-0.5,0.5v12.9c-1.2,0.7-2.6,1-4,1c-1.8,0-2.7-0.8-2.7-2.6V50.8c0-0.3-0.2-0.5-0.5-0.5h-2.9c-0.3,0-0.5,0.2-0.5,0.5
			v11.7c0,3.3,1.6,5.5,6,5.5c2,0,4-0.6,5.6-1.8L103.3,67.3L103.3,67.3z"/>
		<path class="st0" d="M135.6,55.3c0-3.3-1.6-5.5-5.7-5.5c-2,0-3.9,0.6-5.5,1.7c-0.7-1.1-2.1-1.7-4.4-1.7c-1.9,0-3.7,0.7-5.2,1.8
			l-0.5-1.1l0,0c-0.1-0.2-0.3-0.3-0.4-0.3h-1.4c-0.3,0-0.5,0.2-0.5,0.5V67c0,0.3,0.2,0.5,0.5,0.5h2.9c0.3,0,0.5-0.2,0.5-0.5V54.1
			c1.1-0.7,2.4-1,3.6-1c1.6,0,2.5,0.6,2.5,2.2V67c0,0.3,0.2,0.5,0.5,0.5h2.9c0.3,0,0.5-0.2,0.5-0.5V54.1c1.1-0.7,2.4-1,3.6-1
			c1.5,0,2.5,0.6,2.5,2.2V67c0,0.3,0.2,0.5,0.5,0.5h2.9c0.3,0,0.5-0.2,0.5-0.5L135.6,55.3z"/>
		<path class="st0" d="M144.4,66.2C146,67.4,148,68,150,68c5.1,0,6.9-3.4,6.9-9.1s-1.9-9.1-6.9-9.1c-1.6,0-3.3,0.5-4.6,1.4v-5.2
			c0-0.3-0.2-0.5-0.5-0.5c0,0,0,0,0,0H142c-0.3,0-0.5,0.2-0.5,0.5V67c0,0.3,0.2,0.5,0.5,0.5h1.4c0.2,0,0.4-0.1,0.4-0.3l0,0
			L144.4,66.2z M149.1,64.7c-1.3,0-2.6-0.3-3.7-1v-9.5c1.1-0.7,2.4-1,3.7-1c3.4,0,3.9,2.6,3.9,5.8C153,62.1,152.5,64.7,149.1,64.7
			L149.1,64.7z"/>
		<path class="st0" d="M171.3,53.2c-0.4-0.1-0.9-0.1-1.3-0.1c-1.5-0.1-3.1,0.3-4.4,1V67c0,0.3-0.2,0.5-0.5,0.5h-2.9
			c-0.3,0-0.5-0.2-0.5-0.5V50.8c0-0.3,0.2-0.5,0.5-0.5h1.4c0.2,0,0.4,0.1,0.4,0.3l0,0l0.5,1.1c1.6-1.2,3.5-1.8,5.5-1.8
			c0.5,0,0.9,0,1.4,0.1l0,0c0.3,0,0.5,0.4,0.5,0.7v2.1C171.8,53,171.6,53.2,171.3,53.2L171.3,53.2"/>
		<path class="st0" d="M181.2,59.6c-1.7,0.2-2.7,0.9-2.7,2.7c0,1.3,0.6,2.6,2.7,2.6c1.3,0,2.6-0.4,3.7-1.1v-4.5L181.2,59.6z
			 M185.8,66.2c-1.5,1.2-3.3,1.8-5.2,1.8c-4.5,0-6-2.8-6-5.5c0-3.7,2.4-5.3,6.3-5.6l3.9-0.3v-0.9c0-1.8-0.8-2.5-3.4-2.5
			c-1.6,0-3.2,0.3-4.7,0.8c-0.1,0-0.1,0-0.2,0c-0.3,0-0.5-0.2-0.5-0.5v-2.3c0-0.2,0.1-0.4,0.3-0.5l0,0c1.7-0.6,3.5-0.9,5.3-0.9
			c5.7,0,7,2.5,7,6.2v11c0,0.3-0.2,0.5-0.5,0.5h-1.4c-0.2,0-0.4-0.1-0.4-0.3l0,0L185.8,66.2z"/>
		<path class="st0" d="M205.5,64c0.1,0,0.1,0,0.2,0c0.3,0,0.5,0.2,0.5,0.5v2.3c0,0.2-0.1,0.4-0.3,0.5l0,0c-1.4,0.5-2.9,0.8-4.5,0.7
			c-6.1,0-8-3.7-8-9.1s1.9-9.1,8-9.1c1.5,0,3,0.2,4.4,0.7l0,0c0.2,0.1,0.3,0.3,0.3,0.5v2.3c0,0.3-0.2,0.5-0.5,0.5
			c-0.1,0-0.1,0-0.2,0l0,0c-1.2-0.4-2.6-0.6-3.9-0.5c-3.4,0-4.3,2.3-4.3,5.6c0,3.4,1,5.6,4.3,5.6C202.9,64.6,204.2,64.4,205.5,64"/>
	</g>
</g>
</svg>
