<?xml version="1.0" encoding="UTF-8"?>
<svg version="1.1" xmlns="http://www.w3.org/2000/svg" width="273" height="91">
<path d="M0 0 C3.94139078 1.66751148 6.7892812 4.22710649 10 7 C9.319375 7.515625 8.63875 8.03125 7.9375 8.5625 C5.62783989 10.89978591 5.62783989 10.89978591 6.25 14.1875 C6.4975 15.445625 6.745 16.70375 7 18 C7.62886695 25.40228803 6.598657 30.82386367 1.75 36.75 C-3.91926495 41.3884895 -8.74942502 42.33463591 -15.86328125 42.0078125 C-18.05415015 41.83937471 -18.05415015 41.83937471 -20 43 C-20 43.66 -20 44.32 -20 45 C-18.329375 44.7525 -18.329375 44.7525 -16.625 44.5 C-8.83136761 43.5620053 -1.96665676 42.95933908 5 47 C8.84714188 50.44217958 9.77538822 53.73301608 10.08203125 58.73046875 C9.94354524 62.56191504 9.07318828 64.76826532 7 68 C-1.7148896 75.29810226 -9.95991077 75.66770564 -20.93554688 75.19238281 C-27.10321894 74.61762813 -31.68760101 72.31239899 -36 68 C-33.36 64.7 -30.72 61.4 -28 58 C-26.72125 58.825 -25.4425 59.65 -24.125 60.5 C-19.00971268 63.34810162 -14.75656969 63.7922805 -9 63 C-6.02019799 62.14939987 -6.02019799 62.14939987 -4 61 C-4.495 58.525 -4.495 58.525 -5 56 C-5.56920166 56.01571045 -6.13840332 56.0314209 -6.72485352 56.04760742 C-9.33729874 56.11048439 -11.9495841 56.14915532 -14.5625 56.1875 C-15.45775391 56.21263672 -16.35300781 56.23777344 -17.27539062 56.26367188 C-22.98016874 56.32636174 -26.99488131 55.82154523 -32 53 C-34.36086122 49.45870816 -34.57269578 48.17249782 -34 44 C-32.520959 41.72732724 -30.88485657 39.9790994 -29 38 C-29.42152344 37.46890625 -29.84304687 36.9378125 -30.27734375 36.390625 C-31.09912109 35.33101562 -31.09912109 35.33101562 -31.9375 34.25 C-32.48277344 33.55390625 -33.02804688 32.8578125 -33.58984375 32.140625 C-36.43624073 27.81977862 -36.49459928 23.06013113 -36 18 C-34.17997762 11.51617026 -30.35337339 7.82075439 -25 4 C-21.45865331 2.8195511 -18.24554786 2.85381276 -14.5625 2.875 C-13.24378906 2.87242188 -11.92507812 2.86984375 -10.56640625 2.8671875 C-7.79761546 2.9702969 -5.60922886 3.15917433 -3 4 C-2.01 2.68 -1.02 1.36 0 0 Z M-22 17 C-23.55024464 20.10048928 -23.28992015 22.57894218 -23 26 C-21.03928757 29.46895276 -19.84456051 30.71249004 -16.0625 32 C-12.3743624 32 -10.85491706 31.2997943 -8 29 C-5.67597049 25.79062591 -5.52429309 22.88493979 -6 19 C-8.07829704 15.25906533 -9.32541719 14.20850741 -13.4375 12.9375 C-17.73331579 13.01286519 -19.05219671 13.96549661 -22 17 Z " fill="#FFFFFF" transform="translate(59,16)"/>
<path d="M0 0 C3.83084349 2.61193874 6.65161815 5.67823629 8.75 9.875 C8.953125 11.93359375 8.953125 11.93359375 9 14.3125 C9.03867188 15.48619141 9.03867188 15.48619141 9.078125 16.68359375 C8.67196685 19.39614994 7.91464487 20.24120852 5.75 21.875 C2.97885035 22.29067245 1.45419694 22.31838326 -0.9375 20.8125 C-2.81489614 18.0411057 -3.41581895 15.09255549 -4.25 11.875 C-5.30310277 10.60496677 -5.30310277 10.60496677 -7.6875 10.6875 C-10.41734675 10.60660017 -10.41734675 10.60660017 -12.25 12.875 C-12.71486718 15.99696336 -12.71486718 15.99696336 -12.875 19.5 C-12.94976562 20.68851563 -13.02453125 21.87703125 -13.1015625 23.1015625 C-13.15054688 24.01679688 -13.19953125 24.93203125 -13.25 25.875 C-12.69014404 25.86452637 -12.13028809 25.85405273 -11.5534668 25.84326172 C-9.01485693 25.80166674 -6.4763188 25.77566315 -3.9375 25.75 C-3.05642578 25.73324219 -2.17535156 25.71648438 -1.26757812 25.69921875 C-0.42001953 25.69277344 0.42753906 25.68632812 1.30078125 25.6796875 C2.47120972 25.66397705 2.47120972 25.66397705 3.6652832 25.64794922 C5.75 25.875 5.75 25.875 8.75 27.875 C9.0625 31.375 9.0625 31.375 8.75 34.875 C6.75 36.875 6.75 36.875 4.68701172 37.10205078 C3.44588623 37.08634033 3.44588623 37.08634033 2.1796875 37.0703125 C1.28378906 37.06386719 0.38789063 37.05742188 -0.53515625 37.05078125 C-1.47230469 37.03402344 -2.40945312 37.01726563 -3.375 37 C-4.31988281 36.99097656 -5.26476562 36.98195312 -6.23828125 36.97265625 C-8.57577292 36.94904522 -10.91276123 36.91611516 -13.25 36.875 C-13.21519531 37.85082031 -13.18039063 38.82664063 -13.14453125 39.83203125 C-13.11746094 41.10433594 -13.09039062 42.37664063 -13.0625 43.6875 C-13.02769531 44.95207031 -12.99289063 46.21664062 -12.95703125 47.51953125 C-13.25 50.875 -13.25 50.875 -14.5703125 52.8046875 C-17.1586481 54.45399902 -19.26406667 54.19265248 -22.25 53.875 C-25.37749793 50.74750207 -24.57542906 46.90317187 -24.5859375 42.703125 C-24.5925943 41.78795105 -24.5992511 40.8727771 -24.60610962 39.92987061 C-24.61624831 37.98972588 -24.62092626 36.04954619 -24.62060547 34.109375 C-24.62496253 31.15044947 -24.66122395 28.19303481 -24.69921875 25.234375 C-24.70509 23.34896343 -24.70905733 21.46354478 -24.7109375 19.578125 C-24.72530853 18.69666809 -24.73967957 17.81521118 -24.75448608 16.90704346 C-24.71379285 11.39181134 -23.92367608 8.24974646 -20.25 3.875 C-14.1759314 -1.60647654 -7.71860589 -2.67182511 0 0 Z " fill="#FFFFFF" transform="translate(167.25,1.125)"/>
<path d="M0 0 C1.7325 0.1546875 1.7325 0.1546875 3.5 0.3125 C5.79013653 3.7477048 5.67842973 5.297831 5.5 9.3125 C6.09538574 9.30202637 6.69077148 9.29155273 7.30419922 9.28076172 C9.99442343 9.23926051 12.68458037 9.21319296 15.375 9.1875 C16.31214844 9.17074219 17.24929687 9.15398438 18.21484375 9.13671875 C19.11074219 9.13027344 20.00664062 9.12382812 20.9296875 9.1171875 C21.75710449 9.10671387 22.58452148 9.09624023 23.43701172 9.08544922 C25.5 9.3125 25.5 9.3125 27.5 11.3125 C27.8125 14.8125 27.8125 14.8125 27.5 18.3125 C24.34685215 20.41459857 23.63896919 20.5559761 20.05078125 20.5078125 C18.77944336 20.49814453 18.77944336 20.49814453 17.48242188 20.48828125 C16.60134766 20.47152344 15.72027344 20.45476563 14.8125 20.4375 C13.91982422 20.42847656 13.02714844 20.41945313 12.10742188 20.41015625 C9.90467686 20.38659748 7.70247412 20.35370329 5.5 20.3125 C5.61371497 22.60475435 5.74130964 24.89632388 5.875 27.1875 C5.94460937 28.46367188 6.01421875 29.73984375 6.0859375 31.0546875 C6.17241106 34.39311699 6.17241106 34.39311699 8.5 36.3125 C11 36.64583333 11 36.64583333 13.5 36.3125 C15.79947981 34.33678215 15.79947981 34.33678215 16.5 30.8125 C17.5 27.3125 17.5 27.3125 19.5 25.3125 C26.07692308 25.88942308 26.07692308 25.88942308 27.5 27.3125 C28.06752591 32.25276655 28.05579346 36.20091308 25.8125 40.6875 C22.2407622 44.74190507 19.02863241 47.96299736 13.44921875 48.515625 C8.35108367 48.62128583 4.84316617 48.27374966 0.5 45.3125 C-4.57106055 40.15898318 -5.65746257 36.60242953 -5.66796875 29.53125 C-5.67129715 28.76196167 -5.67462555 27.99267334 -5.67805481 27.20007324 C-5.68312004 25.57267862 -5.68546326 23.9452736 -5.68530273 22.31787109 C-5.6874913 19.82241825 -5.70565654 17.32740595 -5.72460938 14.83203125 C-5.72754291 13.25260568 -5.72952797 11.67317801 -5.73046875 10.09375 C-5.73765427 9.3447644 -5.74483978 8.59577881 -5.75224304 7.82409668 C-5.7289578 2.57070158 -5.71896516 0.51062189 0 0 Z " fill="#FFFFFF" transform="translate(223.5,8.6875)"/>
<path d="M0 0 C5.00846419 2.85377118 8.33630664 6.8642743 10.54296875 12.1640625 C11.16716246 16.3135722 11.1092491 20.35243873 10.98046875 24.5390625 C10.97466797 25.63089844 10.96886719 26.72273438 10.96289062 27.84765625 C10.83865393 35.86837732 10.83865393 35.86837732 8.54296875 38.1640625 C3.29599939 38.72225073 3.29599939 38.72225073 0.87475586 36.92749023 C-0.81638865 34.6882351 -0.82558948 33.42269402 -0.828125 30.63671875 C-0.84552734 29.76208984 -0.86292969 28.88746094 -0.88085938 27.98632812 C-0.88995453 26.15040577 -0.89517951 24.31446005 -0.89648438 22.47851562 C-0.94405198 17.18722962 -0.94405198 17.18722962 -3.2734375 12.56640625 C-6.50037399 10.49400875 -8.70938179 10.62868401 -12.45703125 11.1640625 C-15.04036458 12.58072917 -15.04036458 12.58072917 -16.45703125 15.1640625 C-16.78798083 18.93688776 -16.65457942 21.57141798 -15.45703125 25.1640625 C-13.44710921 25.86005561 -13.44710921 25.86005561 -11.08203125 26.1640625 C-8.43066748 26.57860798 -6.82015915 26.89525353 -4.65234375 28.5 C-3.45703125 30.1640625 -3.45703125 30.1640625 -3.70703125 33.7890625 C-4.45703125 37.1640625 -4.45703125 37.1640625 -5.45703125 38.1640625 C-11.93782505 39.02911375 -17.10019273 37.91749357 -22.45703125 34.1640625 C-28.0728385 28.25268645 -28.96570192 23.44356715 -28.83984375 15.43359375 C-28.12383083 9.31825893 -25.22993288 5.8103283 -20.83203125 1.7265625 C-14.99447626 -2.1139342 -6.52771112 -2.22087469 0 0 Z " fill="#FFFFFF" transform="translate(129.45703125,16.8359375)"/>
<path d="M0 0 C2 2 2 2 2.375 4.9375 C2 8 2 8 0.375 9.8125 C-2.40491311 11.20245656 -4.94095427 11.54323838 -8 12 C-8.01458252 12.7113208 -8.02916504 13.4226416 -8.04418945 14.15551758 C-8.11861006 17.37506332 -8.21529 20.59356518 -8.3125 23.8125 C-8.33505859 24.93205078 -8.35761719 26.05160156 -8.38085938 27.20507812 C-8.41630859 28.27822266 -8.45175781 29.35136719 -8.48828125 30.45703125 C-8.51446533 31.44678955 -8.54064941 32.43654785 -8.56762695 33.45629883 C-9 36 -9 36 -10.34057617 37.8269043 C-12.89184455 39.63047125 -14.97117793 39.32221511 -18 39 C-21.6819421 35.3180579 -20.36962063 29.28572784 -20.375 24.3125 C-20.39949219 23.14009766 -20.42398438 21.96769531 -20.44921875 20.75976562 C-20.47232559 13.93939532 -20.17003688 9.49409968 -16 4 C-11.21298839 -0.44508221 -6.29017756 -0.97294113 0 0 Z " fill="#FFFFFF" transform="translate(95,16)"/>
<path d="M0 0 C1.7325 0.1546875 1.7325 0.1546875 3.5 0.3125 C5.9007285 3.91359275 5.80622383 6.55689089 5.80078125 10.71875 C5.80506638 11.43985962 5.8093515 12.16096924 5.81376648 12.90393066 C5.81950381 14.42699128 5.82001442 15.95007929 5.81567383 17.47314453 C5.81251128 19.80418528 5.83598708 22.13395968 5.86132812 24.46484375 C5.86360093 25.9453109 5.8643047 27.42578146 5.86328125 28.90625 C5.872491 29.6031897 5.88170074 30.30012939 5.89118958 31.01818848 C5.86371602 33.88858666 5.81681333 35.85003272 4.16870117 38.25585938 C1.5856856 39.89145431 -0.52608605 39.62887382 -3.5 39.3125 C-6.01704805 36.79545195 -5.74669599 35.23577101 -5.77789307 31.80090332 C-5.7738446 31.05191772 -5.76979614 30.30293213 -5.765625 29.53125 C-5.76753845 28.76196167 -5.7694519 27.99267334 -5.77142334 27.20007324 C-5.77278508 25.5726692 -5.76908939 23.9452543 -5.76074219 22.31787109 C-5.75004221 19.82234369 -5.76063751 17.32753618 -5.7734375 14.83203125 C-5.7721159 13.25260257 -5.7695535 11.67317434 -5.765625 10.09375 C-5.76967346 9.3447644 -5.77372192 8.59577881 -5.77789307 7.82409668 C-5.71146258 0.50995202 -5.71146258 0.50995202 0 0 Z " fill="#FFFFFF" transform="translate(205.5,17.6875)"/>
<path d="M0 0 C1.875 1.1875 1.875 1.1875 3 3 C3.5 5.9375 3.5 5.9375 3 9 C0.875 11.4375 0.875 11.4375 -2 13 C-5.72706873 12.85384044 -7.34211707 12.65788293 -10 10 C-10.67973856 2.8627451 -10.67973856 2.8627451 -8.375 -0.0625 C-5.15632669 -1.33302894 -3.29045231 -0.98013473 0 0 Z " fill="#FFFFFF" transform="translate(209,2)"/>
<path d="M0 0 C2.4375 1.5625 2.4375 1.5625 4 4 C3.78571429 10.21428571 3.78571429 10.21428571 1 13 C-3.33643601 13.31537716 -5.32653229 13.44897847 -9 11 C-9.65158371 4.15837104 -9.65158371 4.15837104 -7.875 1 C-5.05480125 -0.504106 -3.14389944 -0.44912849 0 0 Z " fill="#FFFFFF" transform="translate(190,43)"/>
<path d="M0 0 C2 1 2 1 2 1 Z " fill="#FFFFFF" transform="translate(206,63)"/>
</svg>
